<svg xmlns="http://www.w3.org/2000/svg" viewBox="0 0 437 396.2"><defs><style>.cls-1{fill:#00aeef;}</style></defs><g id="Layer_2" data-name="Layer 2"><g id="Layer_1-2" data-name="Layer 1"><polygon class="cls-1" points="101.14 264.56 108.76 313.26 211.19 120.62 214.88 0 160.41 71.17 101.14 264.56"/><polygon class="cls-1" points="165.47 148.26 211.68 119.88 109.4 311.84 0 386.11 32.68 307.32 165.47 148.26"/><polygon class="cls-1" points="269.9 148.53 222.64 121.61 334.17 311.02 437 386.11 408.95 301.32 269.9 148.53"/><polygon class="cls-1" points="283.83 348.58 324.23 321.79 110.84 323.86 4.64 394.13 82.2 393.62 283.83 348.58"/><polygon class="cls-1" points="337.38 265.18 333.84 310.66 222.66 120.83 225.88 0.29 273.94 67.92 337.38 265.18"/><polygon class="cls-1" points="151.24 350.65 110.84 323.86 324.23 321.79 430.42 396.2 352.86 395.68 151.24 350.65"/></g></g></svg>